<svg xmlns="http://www.w3.org/2000/svg" viewBox="0 0 500 500"><g id="freepik--background-complete--inject-68"><rect x="62.58" y="278.27" width="71.19" height="48" rx="7.28" transform="translate(109.54 -15.34) rotate(20.04)" style="fill:#e0e0e0"></rect><g style="opacity:0.30000000000000004"><rect x="65.53" y="289.16" width="71.19" height="10.06" transform="translate(106.95 -16.84) rotate(20.04)" style="fill:#fff"></rect></g><path d="M89.69,313.3c0,.11-5.52-1.79-12.24-4.24s-12.15-4.53-12.11-4.64,5.52,1.79,12.25,4.24S89.73,313.19,89.69,313.3Z" style="fill:#fff"></path><path d="M95.61,313c0,.11-6.67-2.21-14.81-5.18s-14.71-5.46-14.67-5.57,6.67,2.21,14.81,5.18S95.65,312.91,95.61,313Z" style="fill:#fff"></path><path d="M351.8,421.17c0,.62-.22,19.35-.22,19.35H345.9v3.7h5.68V467H457.89V446.28H450v-4.52h7.87V435h3.5V431.9h-4.15l.21-10.73Z" style="fill:#f5f5f5"></path><polygon points="429.87 421.27 429.66 466.64 457.89 466.64 457.89 445.9 450.02 445.9 450.02 441.76 457.89 441.9 457.89 435.12 461.46 435.12 461.39 431.62 457.24 431.52 457.45 421.17 429.87 421.27" style="fill:#e0e0e0"></polygon><path d="M431.67,443.73c0,.21-19.23.38-43,.38s-43-.17-43-.38,19.23-.38,43-.38S431.67,443.52,431.67,443.73Z" style="fill:#e0e0e0"></path><path d="M431.67,440.27c0,.21-19.23.38-43,.38s-43-.17-43-.38,19.23-.38,43-.38S431.67,440.06,431.67,440.27Z" style="fill:#e0e0e0"></path><path d="M437.19,431c0,.21-19.24.38-43,.38s-43-.17-43-.38,19.23-.38,43-.38S437.19,430.75,437.19,431Z" style="fill:#e0e0e0"></path><path d="M437.72,456.34c0,.2-19.24.37-43,.37s-43-.17-43-.37,19.23-.38,43-.38S437.72,456.13,437.72,456.34Z" style="fill:#e0e0e0"></path><path d="M179.33,57.53,194.6,77.28a4,4,0,0,0,5.26,1h0a4,4,0,0,0,1.51-5.36L189.63,50.64A3.16,3.16,0,0,0,185,49.51L180,53A3.18,3.18,0,0,0,179.33,57.53Z" style="fill:#e0e0e0"></path><path d="M213.18,86.19a6.08,6.08,0,1,1-7.5-4.21A6.09,6.09,0,0,1,213.18,86.19Z" style="fill:#e0e0e0"></path><path d="M218,51.62l3.19,17.45a2.89,2.89,0,0,0,3,2.36h0a2.88,2.88,0,0,0,2.7-2.89l-.13-17.91a2.25,2.25,0,0,0-2.55-2.22L220,49A2.26,2.26,0,0,0,218,51.62Z" style="fill:#ebebeb"></path><path d="M230.05,80.77a4.32,4.32,0,1,1-3.37-5.11A4.33,4.33,0,0,1,230.05,80.77Z" style="fill:#ebebeb"></path><path d="M444.32,78a26.34,26.34,0,1,1-29.84-22.22A26.3,26.3,0,0,1,444.32,78Z" style="fill:#f5f5f5"></path><path d="M438.12,78.87a20.07,20.07,0,1,1-22.74-16.93A20,20,0,0,1,438.12,78.87Z" style="fill:#ebebeb"></path><path d="M438,78.25a12,12,0,0,1-.87-2.32A21.11,21.11,0,0,0,434,70.18,20.79,20.79,0,0,0,430.82,67a20.16,20.16,0,0,0-4.38-2.71,19.38,19.38,0,0,0-2.62-1A19.5,19.5,0,0,0,418,62.5a21.8,21.8,0,0,0-3.09.29,22.21,22.21,0,0,0-3,.78,20.16,20.16,0,0,0-2.76,1.2,19,19,0,0,0-2.46,1.55,17.83,17.83,0,0,0-2.13,1.81,20.06,20.06,0,0,0-3.18,4.05,21.08,21.08,0,0,0-1.85,4.12,21.32,21.32,0,0,0-1,6.49,12,12,0,0,1,0,2.47,5.85,5.85,0,0,1-.58-2.44,18.74,18.74,0,0,1,.56-6.83,20,20,0,0,1,5.07-8.86,18.74,18.74,0,0,1,2.25-2,18.52,18.52,0,0,1,2.63-1.7,20.31,20.31,0,0,1,3-1.32,23,23,0,0,1,3.24-.85A22,22,0,0,1,418,61a20.36,20.36,0,0,1,3.24.21,20,20,0,0,1,3.06.69A19,19,0,0,1,427,63a20.06,20.06,0,0,1,7.81,6.57,18.75,18.75,0,0,1,2.88,6.23A5.91,5.91,0,0,1,438,78.25Z" style="fill:#e0e0e0"></path><path d="M422.23,93.28l.55,3.45-3.08.49-.54-3.36a14.78,14.78,0,0,1-8.07-1.23l1.09-4a12.57,12.57,0,0,0,6.33,1.23l-.82-5.14c-3.56-.29-7.56-.82-8.27-5.22-.52-3.27,1.4-6.46,6.19-7.79l-.55-3.42,3.08-.5.54,3.36a14.17,14.17,0,0,1,6.56.88l-.94,4a12.82,12.82,0,0,0-5-.85l.84,5.24c3.55.26,7.49.8,8.19,5.14C428.87,88.77,427,91.92,422.23,93.28ZM417,80.15l-.7-4.38c-1.57.63-2.08,1.63-1.91,2.65S415.54,79.93,417,80.15Zm6.49,6.58c-.17-1.08-1.16-1.53-2.56-1.78l.68,4.26C423.06,88.62,423.61,87.71,423.45,86.73Z" style="fill:#e0e0e0"></path><path d="M377,230.22a16.63,16.63,0,1,1-18.84-14A16.61,16.61,0,0,1,377,230.22Z" style="fill:#f5f5f5"></path><path d="M373.08,230.79a12.67,12.67,0,1,1-14.35-10.68A12.64,12.64,0,0,1,373.08,230.79Z" style="fill:#ebebeb"></path><path d="M373,230.4a8.07,8.07,0,0,1-.55-1.46,13.26,13.26,0,0,0-2-3.63,13.11,13.11,0,0,0-2-2,12.84,12.84,0,0,0-2.77-1.71,10.78,10.78,0,0,0-1.65-.61,12.46,12.46,0,0,0-3.69-.49,12.51,12.51,0,0,0-3.84.68,12.36,12.36,0,0,0-1.74.76A12.32,12.32,0,0,0,351.9,224a12.09,12.09,0,0,0-2,2.56,13.08,13.08,0,0,0-1.17,2.6,13.47,13.47,0,0,0-.63,4.1,8.3,8.3,0,0,1,0,1.56,3.65,3.65,0,0,1-.37-1.54,11.73,11.73,0,0,1,.35-4.31,12.61,12.61,0,0,1,1.13-2.81,13.16,13.16,0,0,1,2.07-2.79,13,13,0,0,1,3.08-2.32,12.08,12.08,0,0,1,1.87-.83,13.9,13.9,0,0,1,2-.54,15.21,15.21,0,0,1,2.1-.2,13.84,13.84,0,0,1,2,.14,13.52,13.52,0,0,1,1.93.43,14.29,14.29,0,0,1,1.76.69,13.33,13.33,0,0,1,2.91,1.91,12.9,12.9,0,0,1,2,2.24,11.59,11.59,0,0,1,1.81,3.93A3.62,3.62,0,0,1,373,230.4Z" style="fill:#e0e0e0"></path><path d="M363.05,239.89l.35,2.18-1.95.31-.33-2.12a9.43,9.43,0,0,1-5.1-.78l.69-2.55a8,8,0,0,0,4,.78l-.52-3.25c-2.25-.18-4.77-.51-5.22-3.3-.33-2.06.88-4.07,3.9-4.91l-.34-2.16,1.94-.31.34,2.12a8.87,8.87,0,0,1,4.14.55l-.59,2.55a8.14,8.14,0,0,0-3.14-.53l.53,3.3c2.24.16,4.73.5,5.17,3.25C367.24,237,366.05,239,363.05,239.89Zm-3.32-8.29-.44-2.76c-1,.39-1.32,1-1.21,1.67S358.83,231.46,359.73,231.6Zm4.1,4.15c-.11-.68-.74-1-1.62-1.12l.43,2.69C363.58,237,363.93,236.37,363.83,235.75Z" style="fill:#e0e0e0"></path><path d="M141.13,225.45A24.2,24.2,0,1,1,113.71,205,24.17,24.17,0,0,1,141.13,225.45Z" style="fill:#f5f5f5"></path><path d="M135.43,226.28a18.44,18.44,0,1,1-20.9-15.56A18.42,18.42,0,0,1,135.43,226.28Z" style="fill:#ebebeb"></path><path d="M135.34,225.7a11.26,11.26,0,0,1-.8-2.12,19.18,19.18,0,0,0-2.92-5.29,18.63,18.63,0,0,0-2.89-3,18.29,18.29,0,0,0-4-2.49,15.71,15.71,0,0,0-2.41-.89,18,18,0,0,0-2.61-.56,19.31,19.31,0,0,0-2.76-.16,18.33,18.33,0,0,0-2.83.28,18.78,18.78,0,0,0-2.75.71,18,18,0,0,0-2.54,1.1,18.37,18.37,0,0,0-2.26,1.42,18.7,18.7,0,0,0-2,1.66,18.12,18.12,0,0,0-2.92,3.73,18.82,18.82,0,0,0-1.7,3.78,19.37,19.37,0,0,0-.92,6,11,11,0,0,1,0,2.27,5.33,5.33,0,0,1-.53-2.24,17.09,17.09,0,0,1,.51-6.28,18.52,18.52,0,0,1,1.64-4.08,18.91,18.91,0,0,1,3-4.06,17.27,17.27,0,0,1,2.06-1.82,16.69,16.69,0,0,1,2.42-1.56,19,19,0,0,1,2.72-1.21,19.45,19.45,0,0,1,3-.78,19.79,19.79,0,0,1,3.05-.29,19.55,19.55,0,0,1,3,.19,18.11,18.11,0,0,1,2.8.64,17.57,17.57,0,0,1,2.57,1,18.45,18.45,0,0,1,7.18,6,17.16,17.16,0,0,1,2.64,5.72A5.11,5.11,0,0,1,135.34,225.7Z" style="fill:#e0e0e0"></path><path d="M120.83,239.51l.51,3.18-2.84.45-.49-3.09a13.7,13.7,0,0,1-7.42-1.13l1-3.71a11.57,11.57,0,0,0,5.82,1.13l-.76-4.73c-3.27-.26-7-.74-7.6-4.79-.48-3,1.29-5.93,5.68-7.16l-.5-3.14,2.83-.46.5,3.09a13,13,0,0,1,6,.81l-.85,3.71a11.71,11.71,0,0,0-4.57-.78l.77,4.81c3.26.24,6.88.73,7.52,4.72C126.93,235.37,125.19,238.26,120.83,239.51ZM116,227.45l-.64-4c-1.45.58-1.91,1.49-1.76,2.43S114.68,227.25,116,227.45Zm6,6c-.16-1-1.07-1.39-2.36-1.62l.63,3.91C121.6,235.24,122.1,234.4,122,233.49Z" style="fill:#e0e0e0"></path><path d="M97.14,402.68a17,17,0,1,1-19.26-14.34A17,17,0,0,1,97.14,402.68Z" style="fill:#f5f5f5"></path><path d="M93.14,403.26a13,13,0,1,1-14.68-10.93A12.94,12.94,0,0,1,93.14,403.26Z" style="fill:#ebebeb"></path><path d="M93.08,402.86a7.33,7.33,0,0,1-.57-1.49,13.39,13.39,0,0,0-2.05-3.72,13.18,13.18,0,0,0-2-2.08,13,13,0,0,0-4.52-2.38,12,12,0,0,0-1.84-.39,12.29,12.29,0,0,0-1.93-.11,12.38,12.38,0,0,0-3.93.7,13.46,13.46,0,0,0-1.78.77,12.2,12.2,0,0,0-1.59,1,12.9,12.9,0,0,0-1.37,1.16,13.24,13.24,0,0,0-2,2.62,13.71,13.71,0,0,0-1.2,2.66,14.13,14.13,0,0,0-.64,4.19,7.28,7.28,0,0,1,0,1.6,4,4,0,0,1-.37-1.58,12.1,12.1,0,0,1,.36-4.41,13.58,13.58,0,0,1,1.15-2.86,13.22,13.22,0,0,1,2.12-2.86,13.81,13.81,0,0,1,1.45-1.28,13.44,13.44,0,0,1,3.62-1.94,13.26,13.26,0,0,1,2.08-.55,14.33,14.33,0,0,1,2.15-.2,13.11,13.11,0,0,1,2.09.13,13.78,13.78,0,0,1,2,.45,12.46,12.46,0,0,1,1.8.7,13.35,13.35,0,0,1,3,1.95A13.52,13.52,0,0,1,91,397.23a12,12,0,0,1,1.85,4A4,4,0,0,1,93.08,402.86Z" style="fill:#e0e0e0"></path><path d="M82.88,412.56l.36,2.23-2,.31-.35-2.16a9.61,9.61,0,0,1-5.21-.8l.71-2.6a8.2,8.2,0,0,0,4.08.79L80,407c-2.29-.19-4.88-.53-5.33-3.37-.34-2.11.9-4.17,4-5l-.36-2.21,2-.32.35,2.17a9.1,9.1,0,0,1,4.23.57l-.6,2.61a8.17,8.17,0,0,0-3.21-.55l.54,3.38c2.29.17,4.84.51,5.29,3.32C87.17,409.65,85.94,411.68,82.88,412.56Zm-3.4-8.48L79,401.26c-1,.41-1.34,1.05-1.24,1.71S78.56,404,79.48,404.08Zm4.19,4.25c-.11-.7-.75-1-1.65-1.14l.44,2.74C83.42,409.55,83.77,409,83.67,408.33Z" style="fill:#e0e0e0"></path><rect x="41.72" y="198.95" width="12.16" height="36.87" style="fill:#f5f5f5"></rect><polygon points="33.59 231.94 48.21 248.6 62.01 232.44 33.59 231.94" style="fill:#f5f5f5"></polygon><rect x="434.02" y="161.86" width="16.13" height="48.92" style="fill:#f5f5f5"></rect><polygon points="423.23 205.63 442.63 227.75 460.94 206.3 423.23 205.63" style="fill:#f5f5f5"></polygon><rect x="458.47" y="306.31" width="7" height="21.23" style="fill:#f5f5f5"></rect><polygon points="453.79 325.31 462.21 334.9 470.16 325.6 453.79 325.31" style="fill:#f5f5f5"></polygon><rect x="179.9" y="305.93" width="7" height="21.23" style="fill:#f5f5f5"></rect><polygon points="175.22 324.93 183.64 334.52 191.59 325.21 175.22 324.93" style="fill:#f5f5f5"></polygon></g><g id="freepik--Table--inject-68"><path d="M460.07,467.58c0,.29-98.43.52-219.82.52s-219.84-.23-219.84-.52,98.41-.52,219.84-.52S460.07,467.29,460.07,467.58Z" style="fill:#263238"></path></g><g id="freepik--Coin--inject-68"><path d="M440.6,371.81a22.6,22.6,0,1,1-19.93-24.94A22.58,22.58,0,0,1,440.6,371.81Z" style="fill:#1151E4"></path><g style="opacity:0.30000000000000004"><path d="M418.93,379.7l-.3,3-2.66-.26.28-2.91a12.75,12.75,0,0,1-6.43-2.78l1.79-3.11a10.94,10.94,0,0,0,5,2.4l.43-4.45c-2.89-1-6.1-2.33-5.72-6.14.28-2.82,2.57-5.05,6.83-5.11l.29-3,2.66.26-.28,2.9a12.17,12.17,0,0,1,5.25,2.16l-1.66,3.15a10.84,10.84,0,0,0-3.94-1.79l-.44,4.54c2.89,1,6,2.28,5.67,6C425.42,377.41,423.16,379.61,418.93,379.7Zm-1.51-12,.37-3.79c-1.45.18-2.08.9-2.17,1.78S416.28,367.17,417.42,367.66Zm3.95,6.87c.09-.93-.63-1.51-1.74-2l-.36,3.68C420.63,376,421.29,375.38,421.37,374.53Z"></path></g><g style="opacity:0.30000000000000004"><path d="M435.31,369.27a10.86,10.86,0,0,1-.22-2.11,17.78,17.78,0,0,0-3.29-8.84,17.91,17.91,0,0,0-3.05-3.2,16.29,16.29,0,0,0-2-1.37,15,15,0,0,0-2.23-1.12,16.33,16.33,0,0,0-2.45-.8,19,19,0,0,0-2.63-.43,19.68,19.68,0,0,0-2.66,0,16.55,16.55,0,0,0-4.93,1.14,15.25,15.25,0,0,0-2.15,1,17,17,0,0,0-6,5.68,18,18,0,0,0-2.24,5.18,11,11,0,0,1-.56,2,5,5,0,0,1,0-2.15,16.14,16.14,0,0,1,2-5.55,17.19,17.19,0,0,1,2.45-3.29,17.55,17.55,0,0,1,3.69-3,16.49,16.49,0,0,1,2.3-1.16,17.29,17.29,0,0,1,2.55-.83,17.73,17.73,0,0,1,2.75-.45,19.64,19.64,0,0,1,2.87,0,20.36,20.36,0,0,1,2.83.46,18.6,18.6,0,0,1,2.64.89,16.68,16.68,0,0,1,2.38,1.23,17.84,17.84,0,0,1,5.25,5,17.45,17.45,0,0,1,1.89,3.65,15.91,15.91,0,0,1,1,5.79A5,5,0,0,1,435.31,369.27Z"></path></g><path d="M435.29,370.88a1,1,0,0,1,0-.28c0-.21,0-.48,0-.83a9.76,9.76,0,0,0,0-1.33,14.5,14.5,0,0,0-.16-1.82,17.09,17.09,0,0,0-1.37-4.79,17.3,17.3,0,0,0-3.76-5.38,16.79,16.79,0,0,0-15.84-4.29,16.49,16.49,0,0,0-2.32.75,18,18,0,0,0-2.23,1.13,16.26,16.26,0,0,0-4,3.27,17.09,17.09,0,0,0-2.93,4.45,18.88,18.88,0,0,0-1.46,5.28,18.64,18.64,0,0,0,.25,5.49,17.2,17.2,0,0,0,1.85,5,16.42,16.42,0,0,0,3.15,4.06,18.19,18.19,0,0,0,1.92,1.61,19.68,19.68,0,0,0,2.1,1.25A17.2,17.2,0,0,0,434.21,375a12.77,12.77,0,0,0,.56-1.74,8.94,8.94,0,0,0,.3-1.3c.06-.34.12-.61.15-.81a1.24,1.24,0,0,1,.07-.28,1.18,1.18,0,0,1,0,.28c0,.21-.07.48-.11.82a9.79,9.79,0,0,1-.26,1.32,14.61,14.61,0,0,1-.53,1.77,16.87,16.87,0,0,1-2.36,4.45,17.39,17.39,0,0,1-4.9,4.52,17,17,0,0,1-16.74.75,18.09,18.09,0,0,1-2.15-1.27,17,17,0,0,1-2-1.64,16.74,16.74,0,0,1-3.24-4.15,17.72,17.72,0,0,1-1.91-5.12,19.47,19.47,0,0,1-.25-5.61,19,19,0,0,1,1.5-5.42,17.25,17.25,0,0,1,3-4.56,16.57,16.57,0,0,1,4.08-3.33,17.46,17.46,0,0,1,2.28-1.16,19.46,19.46,0,0,1,2.39-.76,17,17,0,0,1,16.15,4.46,17.49,17.49,0,0,1,3.76,5.5,16.71,16.71,0,0,1,1.31,4.87,11.19,11.19,0,0,1,.12,1.83,8,8,0,0,1,0,1.35c0,.34,0,.61-.07.82A1.18,1.18,0,0,1,435.29,370.88Z" style="fill:#263238"></path><path d="M410,389.19a2.05,2.05,0,0,1-.67-.19,13.79,13.79,0,0,1-1.74-.76,19.44,19.44,0,0,1-5-3.7,19.83,19.83,0,0,1-3.62-5.1,14.32,14.32,0,0,1-.73-1.75,2,2,0,0,1-.17-.68c.07,0,.42.9,1.17,2.29a22.4,22.4,0,0,0,3.66,4.93,22.14,22.14,0,0,0,4.87,3.74C409.13,388.75,410.05,389.12,410,389.19Z" style="fill:#fff"></path><path d="M413.6,390.53c0,.11-.49.07-1-.09s-.92-.38-.88-.5.49-.07,1,.09S413.64,390.41,413.6,390.53Z" style="fill:#fff"></path><rect x="385.37" y="374.9" width="7" height="21.23" style="fill:#455a64"></rect><polygon points="380.69 393.89 389.11 403.49 397.06 394.18 380.69 393.89" style="fill:#455a64"></polygon></g><g id="freepik--buy-icon--inject-68"><path d="M392,257.8H400l-1.54-1.16q1.75,5.7,3.5,11.4,2.79,9,5.57,18.1c.42,1.39.85,2.78,1.28,4.18a1.64,1.64,0,0,0,1.54,1.16l22.68-.07h3.24a1.59,1.59,0,0,0,0-3.17l-22.67.07h-3.25l1.54,1.16q-1.75-5.7-3.5-11.4-2.79-9.06-5.56-18.1l-1.29-4.18a1.63,1.63,0,0,0-1.54-1.16H392a1.59,1.59,0,0,0,0,3.17Z" style="fill:#263238"></path><path d="M441.3,261.82q-2.24,9.93-4.48,19.85c-.21.95-.43,1.9-.64,2.85l1.16-.87-9.71-.1-15.57-.15-3.56,0,1.16.87q-3.12-9.83-6.25-19.65l-.88-2.77-1.16,1.5h41.09a1.19,1.19,0,0,0,0-2.37H401.37a1.2,1.2,0,0,0-1.15,1.5l6.24,19.65c.3.92.59,1.85.88,2.77a1.23,1.23,0,0,0,1.16.87l9.71.09,15.57.16,3.56,0a1.2,1.2,0,0,0,1.15-.87q2.24-9.93,4.48-19.85c.22-.95.43-1.9.64-2.85C444,261,441.64,260.33,441.3,261.82Z" style="fill:#263238"></path><path d="M409.55,262.83c1.26,7.24,2.86,14.42,4.13,21.65.26,1.5,2.57.87,2.31-.63-1.26-7.23-2.87-14.41-4.13-21.65-.26-1.5-2.57-.86-2.31.63Z" style="fill:#263238"></path><path d="M422.21,262.52c.12,7.42.26,14.84.38,22.26a1.2,1.2,0,0,0,2.4,0c-.12-7.42-.26-14.84-.38-22.26a1.2,1.2,0,0,0-2.4,0Z" style="fill:#263238"></path><path d="M433.91,285.05q1.51-9.89,3-19.77c.15-.94.29-1.89.44-2.83a1.22,1.22,0,0,0-.84-1.46,1.21,1.21,0,0,0-1.47.83q-1.53,9.89-3.05,19.77c-.14,1-.29,1.89-.43,2.83a1.2,1.2,0,0,0,2.31.63Z" style="fill:#263238"></path><path d="M404,270.26h36.27a1.19,1.19,0,0,0,0-2.37H404a1.19,1.19,0,0,0,0,2.37Z" style="fill:#263238"></path><path d="M407.39,278.59h31.42a1.19,1.19,0,0,0,0-2.37H407.39a1.19,1.19,0,0,0,0,2.37Z" style="fill:#263238"></path><ellipse cx="436.23" cy="297.66" rx="4.27" ry="4.22" style="fill:#263238"></ellipse><ellipse cx="412.77" cy="297.66" rx="4.27" ry="4.22" style="fill:#263238"></ellipse></g><g id="freepik--speech-bubble--inject-68"><path d="M402.9,190.09a46.32,46.32,0,1,0-70.62-3.66l-.52,10.16,9.22-1.43A46.32,46.32,0,0,0,402.9,190.09Z" style="fill:#fff"></path><path d="M402.9,190.09s-1.15,1.23-3.46,3.4a47.84,47.84,0,0,1-11.58,7.37,39.37,39.37,0,0,1-4.39,1.68l-2.41.76-2.58.56-1.33.3c-.45.09-.92.12-1.38.19l-2.84.36c-1,.06-2,.07-3,.11-.51,0-1,.05-1.53,0l-1.55-.08-1.57-.09a10.69,10.69,0,0,1-1.59-.15l-3.25-.47a49.25,49.25,0,0,1-6.61-1.79,47.47,47.47,0,0,1-13-6.94l.17,0-9.23,1.44-.27,0v-.28c.16-3.18.34-6.63.52-10.16l.05.16A47,47,0,0,1,322.61,159a46.38,46.38,0,0,1,10.23-29.82,45.9,45.9,0,0,1,11.39-10.14,44.32,44.32,0,0,1,13.61-5.85,49.32,49.32,0,0,1,14.24-1.32,50.76,50.76,0,0,1,13.42,2.88,48.39,48.39,0,0,1,6,2.81,45,45,0,0,1,14.22,12.1,48.05,48.05,0,0,1,6,9.83l1,2.56a22.26,22.26,0,0,1,.87,2.53,39.87,39.87,0,0,1,1.23,5,46.64,46.64,0,0,1-.18,18.13,28.07,28.07,0,0,1-.95,3.77c-.4,1.18-.69,2.35-1.14,3.41s-.89,2.07-1.3,3a9.83,9.83,0,0,1-.68,1.38l-.71,1.27c-.47.82-.86,1.63-1.33,2.32s-.92,1.33-1.34,1.93L406,186.55l-1.09,1.27-1.48,1.7c-.34.39-.52.57-.52.57l.48-.6,1.44-1.74,1.07-1.27c.34-.51.72-1.06,1.13-1.66s.84-1.25,1.31-1.93.84-1.51,1.3-2.33l.7-1.27a8.67,8.67,0,0,0,.66-1.37c.41-1,.84-2,1.28-3s.72-2.22,1.12-3.4a29.63,29.63,0,0,0,.92-3.74,46.54,46.54,0,0,0,.1-18,42.84,42.84,0,0,0-1.23-5,20.76,20.76,0,0,0-.88-2.51c-.33-.84-.65-1.69-1-2.54a47.45,47.45,0,0,0-14.64-18.25,46.49,46.49,0,0,0-5.39-3.43,49.68,49.68,0,0,0-5.95-2.77,51,51,0,0,0-13.28-2.84A49.36,49.36,0,0,0,358,113.72a44.38,44.38,0,0,0-13.45,5.79A45.88,45.88,0,0,0,323.12,159a46.58,46.58,0,0,0,9.35,27.26l.06.07v.09c-.18,3.52-.37,7-.53,10.15l-.27-.23L341,195l.09,0,.08.06A46.75,46.75,0,0,0,354,201.9a48.53,48.53,0,0,0,6.55,1.8l3.22.48a11.9,11.9,0,0,0,1.58.15l1.56.09,1.54.09c.51,0,1,0,1.51,0,1,0,2,0,2.95-.1l2.82-.35c.46-.06.93-.09,1.37-.18l1.33-.29L381,203l2.4-.75a36.67,36.67,0,0,0,4.38-1.64,48.58,48.58,0,0,0,11.59-7.24c1.19-1,2-1.91,2.64-2.46S402.9,190.09,402.9,190.09Z" style="fill:#263238"></path><path d="M343.58,142.8,355,160.12l1.62,2.46a2.54,2.54,0,0,0,3.42.9L374.63,154l-3.42-.9,10.61,17.57,1.5,2.48c1.66,2.75,6,.24,4.32-2.52Q382.33,161.81,377,153l-1.5-2.48a2.52,2.52,0,0,0-3.42-.9l-14.6,9.51,3.42.9-11.41-17.33-1.62-2.46c-1.77-2.67-6.1-.17-4.32,2.53Z" style="fill:#1151E4"></path><polygon points="374.06 173.55 392.74 161.78 392.74 180.66 374.06 173.55" style="fill:#1151E4"></polygon></g><g id="freepik--House--inject-68"><polygon points="314.16 43.76 294.04 43.9 294.04 44.04 291.27 94.74 334.23 94.44 334.02 63.43 314.16 43.76" style="fill:#1151E4"></polygon><g style="opacity:0.30000000000000004"><polygon points="314.16 43.76 294.04 43.9 294.04 44.04 291.27 94.74 334.23 94.44 334.02 63.43 314.16 43.76"></polygon></g><polygon points="294.04 43.9 274.06 62.86 274.28 94.86 314.51 94.58 314.29 63.26 294.04 43.9" style="fill:#1151E4"></polygon><g style="opacity:0.30000000000000004"><rect x="299.82" y="66.19" width="8.57" height="8.57" transform="translate(-0.48 2.11) rotate(-0.4)" style="fill:#fff"></rect></g><g style="opacity:0.30000000000000004"><rect x="278.9" y="66.33" width="8.57" height="8.57" transform="translate(-0.48 1.96) rotate(-0.4)" style="fill:#fff"></rect></g><rect x="278.78" y="47.42" width="4.29" height="12.72" transform="translate(-0.37 1.95) rotate(-0.4)" style="fill:#1151E4"></rect><g style="opacity:0.30000000000000004"><rect x="287.59" y="78.98" width="9.97" height="15.75" transform="translate(-0.6 2.03) rotate(-0.4)"></rect></g><path d="M314.16,43.76l.1.08.28.27c.27.25.63.59,1.09,1l4.09,4c3.51,3.46,8.49,8.35,14.41,14.19l.3.28H334l-19.73-.15h-.07l-.06-.05-3.46-3.32c-6.06-5.79-11.78-11.27-16.77-16.06h.23L278.78,58.54l-4.38,4.08-1.16,1.07-.31.27-.1.09s0,0,.09-.11l.28-.29,1.13-1.11,4.31-4.15c3.73-3.57,9-8.62,15.29-14.61l.11-.11.12.11,16.8,16,3.46,3.32-.13-.06,19.73.2-.12.28L319.58,49.27l-4-4.05-1.05-1.08-.27-.28C314.18,43.8,314.15,43.76,314.16,43.76Z" style="fill:#263238"></path><path d="M297.55,94.69a1.16,1.16,0,0,1,0-.3l0-.88c0-.82,0-1.92-.07-3.28,0-2.85-.06-6.76-.1-11.25l.18.18-5,0h-4.94l.18-.19c0,4.5,0,8.42,0,11.27,0,1.37,0,2.48,0,3.3,0,.35,0,.64,0,.88a.15.15,0,1,1-.06,0c0-.24,0-.53,0-.88,0-.82,0-1.93-.06-3.3,0-2.85-.06-6.77-.11-11.27v-.18h.19l4.94,0h5.15V79c0,4.49,0,8.4,0,11.25,0,1.36,0,2.46-.05,3.28,0,.35,0,.64,0,.88S297.57,94.69,297.55,94.69Z" style="fill:#263238"></path></g><g id="freepik--piggy-bank--inject-68"><path d="M136,162.87c.27.44,6.47,18.79,8.46,18.88a49.85,49.85,0,0,0,6.85-.74s.6-24.67.91-26.3a23.88,23.88,0,0,0,0-5l-13.36,3.15Z" style="fill:#1151E4"></path><path d="M115.5,170.78c.53-.08,4.4,11.42,7,11.33s8.34-.2,8.34-.7-.73-15.88-.73-15.88-13.38,1-13.29,1.28A34.39,34.39,0,0,1,115.5,170.78Z" style="fill:#1151E4"></path><path d="M86.51,169.34c-.19.17,3.67,12.44,5.19,12.71s7.78-.37,7.78-.64,1.57-12.07,1.57-12.07S91.43,165.12,86.51,169.34Z" style="fill:#1151E4"></path><path d="M68.28,167.65s4.25,12.39,5.8,13.19,8.09.53,8.09.53l-.35-13.72-16.6-9.27Z" style="fill:#1151E4"></path><path d="M66.34,161.43c.75.9,16.51,11.85,46.23,9.76s44-22.24,44-22.24L42.35,150.4s2.63,7.39,14.17,7.39H65Z" style="fill:#1151E4"></path><path d="M84.48,173.33a14.77,14.77,0,0,1,.1,3.31c0,2.1-.12,5.09-.26,8.68a.45.45,0,0,1-.44.43h0l-3.49,0a.5.5,0,0,1-.43-.26h0l-1-1.85.91,0c-.23.58-.49,1.21-.75,1.85a.51.51,0,0,1-.47.32H73.37a.52.52,0,0,1-.48-.31c-2.54-5.94-4.78-11.3-6.35-15.19S64.08,164,64.21,164s1.26,2.26,3,6.08,4.08,9.13,6.63,15.07l-.47-.32h5.31l-.48.32c.27-.64.53-1.27.78-1.85h0a.5.5,0,0,1,.65-.27.55.55,0,0,1,.26.24l.93,1.86-.44-.27,3.49,0-.45.43c.23-3.59.45-6.58.63-8.67A16.47,16.47,0,0,1,84.48,173.33Z" style="fill:#263238"></path><path d="M131.76,171.19a18.31,18.31,0,0,1,.32,4c.09,2.51.15,6,.18,10.11a.49.49,0,0,1-.49.5h0l-3.48,0a.53.53,0,0,1-.46-.27c-.23-.42-.48-.87-.74-1.32l-.2-.37.93,0-.77,1.69a.51.51,0,0,1-.47.31l-5.31,0h0a.48.48,0,0,1-.42-.27c-1.47-3-2.68-5.66-3.51-7.52a13.71,13.71,0,0,1-1.17-3,13.05,13.05,0,0,1,1.69,2.75c1,1.79,2.31,4.34,3.85,7.36l-.43-.27,5.31,0-.47.31.76-1.7a.51.51,0,0,1,.68-.26.6.6,0,0,1,.25.22l.2.37.74,1.33-.45-.27,3.48,0-.5.5c0-4.07.09-7.6.18-10.11A18.31,18.31,0,0,1,131.76,171.19Z" style="fill:#263238"></path><path d="M60.52,161.18c.2-.26,5.06,3.67,11.91,7s12.86,5,12.77,5.33a14.12,14.12,0,0,1-4-.8A55.16,55.16,0,0,1,72,169.14a52.14,52.14,0,0,1-8.41-5.2C61.55,162.39,60.44,161.28,60.52,161.18Z" style="fill:#263238"></path><path d="M101.05,175.84c0-.15,2-.25,5.24-.51a112.76,112.76,0,0,0,12.51-1.71,95.27,95.27,0,0,0,12.2-3.23c3.07-1,4.93-1.79,5-1.64s-1.71,1.11-4.75,2.33A68.3,68.3,0,0,1,119,174.65a77.36,77.36,0,0,1-12.67,1.41C103.07,176.14,101.05,176,101.05,175.84Z" style="fill:#263238"></path><path d="M154.37,155.78a14.05,14.05,0,0,1,1.1-1.41,50.42,50.42,0,0,0,3-4.12,44.73,44.73,0,0,0,6.76-17.33,51.45,51.45,0,0,0,.52-12.88c-.06-1.16-.27-2.32-.42-3.51s-.4-2.39-.73-3.58a44.28,44.28,0,0,0-2.4-7.22c-4-9.61-12-18.64-22.42-24.7a72.91,72.91,0,0,0-76.5,2.79c-.94.59-1.72,1.19-2.42,1.69s-1.27.94-1.72,1.31a11.51,11.51,0,0,1-1.44,1.06A10,10,0,0,1,59,86.65c.44-.39,1-.86,1.67-1.39s1.45-1.15,2.38-1.78a68.2,68.2,0,0,1,16.77-8.67,70.91,70.91,0,0,1,27.65-4.14,71.76,71.76,0,0,1,32.84,9.47c10.6,6.16,18.7,15.38,22.78,25.22a46,46,0,0,1,2.4,7.38c.33,1.22.49,2.45.72,3.65s.35,2.4.4,3.58a51.8,51.8,0,0,1-.65,13.08,43.89,43.89,0,0,1-7.15,17.43,42,42,0,0,1-3.2,4A10.1,10.1,0,0,1,154.37,155.78Z" style="fill:#263238"></path><path d="M44.39,107.58c.3.09-1.67,5.59-2.23,12.65s.73,12.77.41,12.83c-.13,0-.61-1.36-1-3.69a37.19,37.19,0,0,1-.42-9.22,40.78,40.78,0,0,1,1.76-9.06C43.61,108.84,44.26,107.53,44.39,107.58Z" style="fill:#263238"></path><path d="M59.76,160.86c0-.22,3.58-.06,9-1.62A29.63,29.63,0,0,0,77.63,155a17.46,17.46,0,0,0,4-4.1,10.45,10.45,0,0,0,1.79-5.69,13.53,13.53,0,0,0-4.68-10.47,18.33,18.33,0,0,0-4.33-2.9l-1.09-.52c-.37-.16-.74-.29-1.09-.43-.71-.29-1.42-.5-2.09-.7-5.45-1.53-9.05-1.32-9-1.55a10.56,10.56,0,0,1,2.49-.11,30.54,30.54,0,0,1,6.73.95,17.78,17.78,0,0,1,2.17.66c.38.13.76.26,1.14.41l1.15.52a18.44,18.44,0,0,1,4.59,3,14.34,14.34,0,0,1,5.08,11.19,11.36,11.36,0,0,1-2,6.25,18.32,18.32,0,0,1-4.26,4.3A28.68,28.68,0,0,1,69,160a33.16,33.16,0,0,1-6.73,1A10.38,10.38,0,0,1,59.76,160.86Z" style="fill:#263238"></path><path d="M111.68,104.16c-.14,0-1-2.58-2.71-6.7a70.88,70.88,0,0,0-3.32-7,26.08,26.08,0,0,0-2.5-3.79A9.09,9.09,0,0,0,101.49,85a4.42,4.42,0,0,0-1-.54,4.5,4.5,0,0,0-.49-.14H99.5a5.5,5.5,0,0,0-2.15.76,14.63,14.63,0,0,0-1.95,1.34,33.33,33.33,0,0,0-3.34,3.11c-2,2.13-3.69,4.19-5.08,5.93-2.75,3.5-4.34,5.77-4.46,5.69a6.27,6.27,0,0,1,.91-1.73c.66-1.07,1.65-2.58,3-4.4a67.65,67.65,0,0,1,5-6.14,32.16,32.16,0,0,1,3.4-3.26,15,15,0,0,1,2.08-1.44,6.24,6.24,0,0,1,2.58-.89c.25,0,.5,0,.75,0a6.05,6.05,0,0,1,.73.2,5.41,5.41,0,0,1,1.2.68A9.87,9.87,0,0,1,103.94,86a24.59,24.59,0,0,1,2.55,4,59,59,0,0,1,3.17,7.24c.76,2.11,1.3,3.85,1.63,5.06A6.34,6.34,0,0,1,111.68,104.16Z" style="fill:#263238"></path><path d="M44.77,86.65c-.06-.05.18-.38.78-.63a7.4,7.4,0,0,1,2.62-.44A30.18,30.18,0,0,1,56.65,87c6.44,1.86,11.33,4.21,11.23,4.46S62.72,89.86,56.37,88a41.82,41.82,0,0,0-8.21-1.72,10.17,10.17,0,0,0-2.49.1C45.09,86.52,44.82,86.69,44.77,86.65Z" style="fill:#263238"></path><path d="M85.05,78.22s.71-.36,2.38-1.08c.83-.35,1.81-.6,3-1,.58-.19,1.22-.31,1.9-.48s1.38-.35,2.15-.47a68,68,0,0,1,24.52.17.46.46,0,0,1,.21.1h0l5.18,4.4.45.39a.51.51,0,0,1,.06.73.53.53,0,0,1-.56.16A44.93,44.93,0,0,0,113.45,79a72.11,72.11,0,0,0-9.93-.09,93.84,93.84,0,0,0-14.28,2h0a.25.25,0,0,1-.17,0c-1.39-.86-2.41-1.56-3.07-2s-1-.66-.93-.65.45.22,1.18.6,1.77.91,3.07,1.64l-.18,0a79.43,79.43,0,0,1,14.34-2.38,70.2,70.2,0,0,1,10.07,0,45,45,0,0,1,11.14,2.15l-.5.89-.45-.38-5.18-4.42.23.12a71.82,71.82,0,0,0-24.2-.51c-.76.09-1.46.26-2.13.39s-1.32.24-1.89.41c-1.15.32-2.2.55-3,.8C86.08,77.93,85.1,78.21,85.05,78.22Z" style="fill:#263238"></path><path d="M77.21,144.6a23.57,23.57,0,0,0-.94-4.33,15.16,15.16,0,0,0-2.58-4.45,18.55,18.55,0,0,0-5.28-4.29,23.41,23.41,0,0,0-17.26-1.87,22.8,22.8,0,0,0-4.73,1.92,20,20,0,0,0-4.22,3.22A14.17,14.17,0,0,0,38,144.74a14.66,14.66,0,0,0,4.08,10,18.72,18.72,0,0,0,9,4.91,27.82,27.82,0,0,0,9.46.5,21.78,21.78,0,0,0,7.84-2.51,18.74,18.74,0,0,0,5.28-4.3,15,15,0,0,0,2.58-4.45,23.21,23.21,0,0,0,.94-4.33,4.56,4.56,0,0,1,0,1.17,8.27,8.27,0,0,1-.15,1.41,11,11,0,0,1-.45,1.88,14.94,14.94,0,0,1-2.51,4.69,19.12,19.12,0,0,1-5.37,4.57,22.47,22.47,0,0,1-8.09,2.73,28.17,28.17,0,0,1-9.79-.43,19.5,19.5,0,0,1-9.55-5.13A15.56,15.56,0,0,1,37,144.75a15.16,15.16,0,0,1,4.52-10.67,20.72,20.72,0,0,1,4.46-3.36,23.57,23.57,0,0,1,5-2,24,24,0,0,1,17.87,2.15,19.12,19.12,0,0,1,5.37,4.57,14.94,14.94,0,0,1,2.51,4.69A10.84,10.84,0,0,1,77.1,142a8.07,8.07,0,0,1,.15,1.41A4.51,4.51,0,0,1,77.21,144.6Z" style="fill:#263238"></path><path d="M50.22,152.23c0-.1.56-.06,1.13-.66a1.71,1.71,0,0,0,.41-1.36c0-.66,0-1.39-.08-2.19,0-1.65-.07-3.58-.11-5.7,0-1.07,0-2.2,0-3.36a1.34,1.34,0,0,0-.49-1.17,1.28,1.28,0,0,0-.59-.27,6.46,6.46,0,0,0-.82,0,1.34,1.34,0,0,0-1.32,1.21c0,.21,0,.57,0,.84,0,1.17,0,2.29,0,3.37,0,2.12-.08,4-.11,5.7,0,.4,0,.78,0,1.15a6.23,6.23,0,0,0,0,1,1.63,1.63,0,0,0,.8,1.13,2.12,2.12,0,0,0,.93.26c.23,0,.36.07.36.11s-.13.07-.36.1a2,2,0,0,1-1.11-.1,2.08,2.08,0,0,1-1.19-1.37,6,6,0,0,1-.09-1.1c0-.37,0-.75,0-1.15,0-1.66-.07-3.58-.11-5.7,0-1.08,0-2.2,0-3.37,0-.31,0-.54,0-.92a2.21,2.21,0,0,1,.36-1.08,2.37,2.37,0,0,1,2-1.09,6.22,6.22,0,0,1,1,.05,2.25,2.25,0,0,1,1.05.48,2.42,2.42,0,0,1,.68.91,2.49,2.49,0,0,1,.18,1.07c0,1.16,0,2.29,0,3.36,0,2.12-.08,4.05-.11,5.7,0,.8-.05,1.53-.08,2.19a2.08,2.08,0,0,1-.71,1.65C50.81,152.5,50.19,152.26,50.22,152.23Z" style="fill:#263238"></path><path d="M61.64,152.23c0-.1.56-.06,1.13-.66a1.71,1.71,0,0,0,.41-1.36c0-.66,0-1.39-.08-2.19,0-1.65-.07-3.58-.11-5.7,0-1.07,0-2.2,0-3.36a1.36,1.36,0,0,0-.49-1.17,1.18,1.18,0,0,0-.59-.27,6.55,6.55,0,0,0-.83,0,1.34,1.34,0,0,0-1.31,1.21c0,.21,0,.57,0,.84,0,1.17,0,2.29,0,3.37,0,2.12-.08,4-.11,5.7,0,.4,0,.78,0,1.15a6.23,6.23,0,0,0,0,1,1.63,1.63,0,0,0,.8,1.13,2.12,2.12,0,0,0,.92.26c.24,0,.37.07.37.11s-.13.07-.37.1a2,2,0,0,1-1.1-.1A2.06,2.06,0,0,1,59,150.86a5.26,5.26,0,0,1-.09-1.1c0-.37,0-.75,0-1.15,0-1.66-.07-3.58-.11-5.7,0-1.08,0-2.2,0-3.37,0-.31,0-.54,0-.92a2.21,2.21,0,0,1,.36-1.08,2.36,2.36,0,0,1,2-1.09,6.34,6.34,0,0,1,1,.05,2.25,2.25,0,0,1,1,.48,2.42,2.42,0,0,1,.68.91A2.65,2.65,0,0,1,64,139c0,1.16,0,2.29,0,3.36,0,2.12-.08,4.05-.11,5.7,0,.8-.05,1.53-.08,2.19a2.11,2.11,0,0,1-.71,1.65C62.23,152.5,61.61,152.26,61.64,152.23Z" style="fill:#263238"></path><path d="M44.39,107.58c-.14,0-.53-2.64-1-7-.23-2.15-.51-4.71-.71-7.58-.05-.75,0-1.47,0-2.25A9.6,9.6,0,0,1,43,88.42a4,4,0,0,1,1.51-2.2,4.47,4.47,0,0,1,2.62-.7,7,7,0,0,1,2.55.66c.76.31,1.49.66,2.18,1,1.41.72,2.71,1.47,3.95,2.21,2.47,1.47,4.63,2.88,6.43,4.08s3.23,2.22,4.21,3a6.59,6.59,0,0,1,1.45,1.21c-.09.13-2.36-1.29-6-3.54-1.85-1.12-4-2.46-6.52-3.87-1.24-.71-2.55-1.44-3.93-2.13-.68-.34-1.39-.68-2.11-1a6.17,6.17,0,0,0-2.15-.58,3.47,3.47,0,0,0-2,.51A3,3,0,0,0,44,88.71,14.76,14.76,0,0,0,43.63,93c.15,2.83.35,5.41.49,7.57C44.4,104.89,44.53,107.56,44.39,107.58Z" style="fill:#263238"></path><path d="M135.32,165.67a1.9,1.9,0,0,1-.34-.88,4.16,4.16,0,0,1-.06-1.16,9.88,9.88,0,0,1,.37-1.53,16.53,16.53,0,0,1,1.72-3.9,12.94,12.94,0,0,1,4-4.07,15.54,15.54,0,0,1,6.49-2.3,16.39,16.39,0,0,1,1.88-.19,4.62,4.62,0,0,1,2.06.23,4.52,4.52,0,0,1,2.86,3.19,4.87,4.87,0,0,1,.14,1.14c0,.35,0,.7,0,1.05,0,.7,0,1.41,0,2.12,0,1.44,0,2.9-.08,4.39-.07,3-.13,6.06-.2,9.21-.1,4.32-.2,8.5-.29,12.45a.51.51,0,0,1-.5.49h-2a.51.51,0,0,1-.39-.19l-1.43-1.83.78,0L149,185.68h0a.48.48,0,0,1-.39.21l-5.6,0h0a.44.44,0,0,1-.41-.28c-2.28-6-4.15-10.92-5.43-14.4-.64-1.74-1.13-3.1-1.45-4a6.94,6.94,0,0,1-.43-1.46A6.61,6.61,0,0,1,136,167c.4.91,1,2.25,1.67,4,1.42,3.42,3.41,8.33,5.78,14.26L143,185l5.6,0-.39.21,1.21-1.83a.49.49,0,0,1,.67-.14l.11.11,1.45,1.82-.39-.19h2l-.5.49c.08-4,.16-8.13.25-12.45.08-3.16.15-6.24.22-9.22,0-1.48.07-2.95.11-4.38l0-2.12,0-1a4,4,0,0,0-.1-.91,3.59,3.59,0,0,0-2.24-2.55,3.72,3.72,0,0,0-1.7-.2,17.86,17.86,0,0,0-1.82.15,15.26,15.26,0,0,0-6.21,2.07,12.68,12.68,0,0,0-3.87,3.76,17.33,17.33,0,0,0-1.83,3.72A5.22,5.22,0,0,0,135.32,165.67Z" style="fill:#263238"></path><path d="M101.05,175.84a10.29,10.29,0,0,1-.66-1.33,9.77,9.77,0,0,0-2.48-3.16,7.5,7.5,0,0,0-5.64-1.53,8.61,8.61,0,0,0-6,4.1l0-.42c.85,2.19,1.76,4.56,2.71,7,.62,1.62,1.23,3.2,1.81,4.73l-.48-.33,6.37,0-.4.22,1.32-2.07h0a.45.45,0,0,1,.62-.14.43.43,0,0,1,.14.16l1.23,2.1-.36-.21,1.58,0-.39.38c.12-2.93.25-5.31.36-7a12.07,12.07,0,0,1,.28-2.59,11.08,11.08,0,0,1,.16,2.56c0,1.66,0,4.06,0,7a.39.39,0,0,1-.38.38h0l-1.58,0a.43.43,0,0,1-.35-.19h0c-.4-.66-.83-1.35-1.28-2.07h.77l-1.28,2.1a.51.51,0,0,1-.39.23h0l-6.37,0a.5.5,0,0,1-.47-.32q-.9-2.29-1.83-4.73c-.93-2.45-1.84-4.81-2.68-7v0a.47.47,0,0,1,0-.4A9.39,9.39,0,0,1,92.17,169a8,8,0,0,1,6.15,1.9,9.07,9.07,0,0,1,2.38,3.5A3.15,3.15,0,0,1,101.05,175.84Z" style="fill:#263238"></path><circle cx="58.43" cy="120.03" r="2.93" style="fill:#263238"></circle><path d="M90.36,120a2.93,2.93,0,1,1-2.93-2.93A2.93,2.93,0,0,1,90.36,120Z" style="fill:#263238"></path><path d="M42.35,150.4c.62,0,31.19,3.54,56,3.55,33.67,0,58.26-5,58.26-5Z" style="opacity:0.30000000000000004"></path><path d="M183.48,112.18a3.48,3.48,0,0,1-1.1,1.44,8.55,8.55,0,0,1-4.47,2.15,8.72,8.72,0,0,1-7-2.14,7.82,7.82,0,0,1-2.42-3.77,4.66,4.66,0,0,1,0-2.51,3.71,3.71,0,0,1,1.64-2,6.51,6.51,0,0,1,2.38-.8,5.81,5.81,0,0,1,2.45.11,3.1,3.1,0,0,1,2,1.55,3.64,3.64,0,0,1,.28,2.34,6.25,6.25,0,0,1-2.08,3.51,8.58,8.58,0,0,1-3,1.72,8.27,8.27,0,0,1-5,.1,3.67,3.67,0,0,1-1.62-.82c0-.08.62.21,1.72.43a8.6,8.6,0,0,0,4.61-.4,8.2,8.2,0,0,0,2.7-1.67,5.52,5.52,0,0,0,1.72-3,2.78,2.78,0,0,0-.22-1.72,2.12,2.12,0,0,0-1.37-1,5.71,5.71,0,0,0-4,.6,2.69,2.69,0,0,0-1.21,1.48,3.65,3.65,0,0,0,0,1.94,6.76,6.76,0,0,0,2.07,3.31,8.09,8.09,0,0,0,6.28,2.12,8.86,8.86,0,0,0,4.31-1.73C183,112.64,183.41,112.13,183.48,112.18Z" style="fill:#263238"></path></g><g id="freepik--credit-card--inject-68"><rect x="43.04" y="307.72" width="71.19" height="48" rx="7.28" transform="translate(-60.98 20.71) rotate(-10.84)" style="fill:#1151E4"></rect><g style="opacity:0.30000000000000004"><rect x="41.42" y="318.24" width="71.19" height="10.06" transform="translate(-59.42 20.25) rotate(-10.84)" style="fill:#fff"></rect></g><path d="M77,345.54c0,.11-5.66,1.29-12.69,2.64s-12.75,2.35-12.77,2.23,5.66-1.29,12.69-2.64S77,345.42,77,345.54Z" style="fill:#263238"></path><path d="M81.94,342.25c0,.11-6.86,1.53-15.37,3.16s-15.43,2.86-15.45,2.74S58,346.63,66.49,345,81.92,342.14,81.94,342.25Z" style="fill:#263238"></path><rect x="98.82" y="330.25" width="8.54" height="8.54" rx="1.35" transform="matrix(0.98, -0.19, 0.19, 0.98, -61.07, 25.36)" style="fill:#fff"></rect></g><g id="freepik--Character--inject-68"><path d="M335.54,407.63l5.69,59.95H202.76s3.75-64,8.08-64S335.54,407.63,335.54,407.63Z" style="fill:#263238"></path><path d="M202.71,144.25a26.92,26.92,0,0,1,3.69-10.19,12.63,12.63,0,0,1,8.84-5.79c3.61-.37,7.54,1.68,8.7,5.13l2.78.24c-4.28,4.18-5.78,10.4-6.51,16.34s.56,11.07-1.79,16.56c-3.65-2.9-7.89-5.91-9.32-10.35a13.15,13.15,0,0,0,1,9.18c-3.79-1.45-6.41-5.13-7.45-9.05S202,148.24,202.71,144.25Z" style="fill:#263238"></path><path d="M219.5,130c-.67-12.63,14.22-18.39,24.1-20.76s20.44.17,29.12,5.2,15.71,12.39,22,20.14l-6.84,2.86c1.93-.89,4.3.17,5.52,1.86a12.65,12.65,0,0,1,1.82,5.89,94.92,94.92,0,0,1,1,14.87c-.37,13-4.78,25.59-9.14,37.94-4.36-8.87-5.2-19-5.66-28.88-.16-3.5-.36-7.23-2.44-10.07-1.87-2.55-5-3.94-8.1-4.69s-6.36-1-9.48-1.74a26.51,26.51,0,0,1-16.55-12.51Z" style="fill:#263238"></path><path d="M280.63,149l15.1,72.37c2.56,12.31,3.82,30.92-15.83,34.09h0C262.65,257,255,241.84,252.66,230.35c-1.13-5.45-2.09-10-2.24-10.54,0,0-18.78,2.1-23.92-15.85-2.48-8.68-6.13-27-9.25-43.56a34.8,34.8,0,0,1,25.07-40l1.73-.47C263.1,115.94,277.15,129.88,280.63,149Z" style="fill:#ffbf9d"></path><path d="M250.42,219.81S262,217.38,272,206.48c0,0-2.13,14.72-20.56,18Z" style="fill:#ff9a6c"></path><path d="M246.44,184.56c0-.16-1.83,0-4.72.42-.72.12-1.43.16-1.68-.29a3.7,3.7,0,0,1-.1-2.23c.2-1.89.4-3.87.62-6,.82-8.46,1.2-15.33.86-15.36s-1.28,6.8-2.09,15.25c-.19,2.08-.36,4.07-.53,6a4.22,4.22,0,0,0,.39,2.87,1.85,1.85,0,0,0,1.45.72,5.34,5.34,0,0,0,1.24-.16C244.73,185.18,246.47,184.72,246.44,184.56Z" style="fill:#263238"></path><path d="M282.8,162.77c.27-.22,11.38-7,14.35,5.39S287,181,286.92,180.65,282.8,162.77,282.8,162.77Z" style="fill:#ffbf9d"></path><path d="M289.59,175c0-.05.25.11.66.19a2.25,2.25,0,0,0,1.62-.36c1.2-.79,1.81-3.14,1.34-5.39a7.47,7.47,0,0,0-1.35-3,2.56,2.56,0,0,0-2-1.27,1.13,1.13,0,0,0-1.14.9c-.08.38.05.61,0,.65s-.31-.15-.33-.68a1.38,1.38,0,0,1,.3-.9,1.69,1.69,0,0,1,1.12-.6A3.12,3.12,0,0,1,292.5,166a7.51,7.51,0,0,1,1.58,3.28c.51,2.53-.21,5.17-1.88,6.12a2.39,2.39,0,0,1-2.06.15C289.68,175.33,289.55,175.07,289.59,175Z" style="fill:#ff9a6c"></path><path d="M220.81,136.45c-4.06-7,1.16-12.13,6.42-18.23a20,20,0,0,1,22-5.36c3.92,1.57,7.2,4.35,10.84,6.49s8.05,3.63,12.05,2.3a15.09,15.09,0,0,1-15.63,7.12,37.84,37.84,0,0,0,20.69,6.75,13.72,13.72,0,0,1-17.42,2.12,38.23,38.23,0,0,0,13.09,13.12c.91.55,2,1.27,1.93,2.32s-1.19,1.74-2.21,2.07a17.68,17.68,0,0,1-17.47-4c-4.85-4.7-8.66-10.06-13.26-15-2.19-2.35-8.09-5.89-11.79-5-3.08.74-8.62,3.38-9.29,6.48" style="fill:#263238"></path><path d="M246.78,122.18A3.78,3.78,0,0,1,249,120c6.46-3,14.44-.8,19.89,3.8s8.82,11.16,11.62,17.72c2.27,5.33,4.3,11,3.92,16.76l-2.09,5.29c-.65,1.57-.18,3.34-.13,5s-.72,3.74-2.4,4a3.42,3.42,0,0,1-3-1.86c-2-3.18-1.65-7.47-3.78-10.57-1.43-2.08-3.78-3.3-5.75-4.88-3.49-2.78-5.84-6.7-8.12-10.54l-11.5-19.37A4.31,4.31,0,0,1,246.78,122.18Z" style="fill:#263238"></path><path d="M220.81,136.45c-4.06-7,1.16-12.13,6.42-18.23a20,20,0,0,1,22-5.36c3.92,1.57,7.2,4.35,10.84,6.49s8.05,3.63,12.05,2.3a15.09,15.09,0,0,1-15.63,7.12,37.84,37.84,0,0,0,20.69,6.75,13.72,13.72,0,0,1-17.42,2.12,38.23,38.23,0,0,0,13.09,13.12c.91.55,2,1.27,1.93,2.32s-1.19,1.74-2.21,2.07a17.68,17.68,0,0,1-17.47-4c-4.85-4.7-8.66-10.06-13.26-15-2.19-2.35-8.09-5.89-11.79-5-3.08.74-8.62,3.38-9.29,6.48" style="fill:#263238"></path><path d="M259.12,124c0-.07-.66,0-1.81-.17a15.88,15.88,0,0,1-4.67-1.47c-1.9-.86-4-2.23-6.46-3.56a21,21,0,0,0-4.09-1.7,12.19,12.19,0,0,0-4.8-.38,15.59,15.59,0,0,0-8.28,3.89,22.7,22.7,0,0,0-4.65,5.84,36.5,36.5,0,0,0-2.17,4.51,8.26,8.26,0,0,0-.58,1.75c.15.06,1.07-2.4,3.24-6a23.54,23.54,0,0,1,4.64-5.58,15.24,15.24,0,0,1,7.9-3.64,14.24,14.24,0,0,1,8.45,1.94c2.45,1.26,4.6,2.6,6.57,3.42a14.33,14.33,0,0,0,4.87,1.26A4.58,4.58,0,0,0,259.12,124Z" style="fill:#455a64"></path><path d="M252.81,137.11c.07-.11-1.62-1.25-4-3.53-1.22-1.12-2.62-2.51-4.34-3.9a17.46,17.46,0,0,0-6.35-3.45,14.29,14.29,0,0,0-7.23,0,13.92,13.92,0,0,0-5.28,2.66,13,13,0,0,0-2.67,2.93,3.78,3.78,0,0,0-.66,1.3,22.14,22.14,0,0,1,3.68-3.78,13.78,13.78,0,0,1,12-2.28,17.15,17.15,0,0,1,6.1,3.25c1.71,1.33,3.15,2.67,4.42,3.75a30.34,30.34,0,0,0,3.12,2.4A4.72,4.72,0,0,0,252.81,137.11Z" style="fill:#455a64"></path><path d="M210.57,147.27a22.56,22.56,0,0,0,.55-3,17.91,17.91,0,0,1,2.54-6.58,12.1,12.1,0,0,1,5.34-4.42c1.68-.69,2.85-.7,2.84-.84a5.18,5.18,0,0,0-3,.31A11.38,11.38,0,0,0,213,137.3a15.82,15.82,0,0,0-2.44,6.93A7.74,7.74,0,0,0,210.57,147.27Z" style="fill:#455a64"></path><path d="M266.93,154.71a3.27,3.27,0,0,0,.55,0,14.41,14.41,0,0,0,1.6-.25,15.71,15.71,0,0,0,5.66-2.46,8.14,8.14,0,0,0,3-3.27,2.51,2.51,0,0,0-.33-2.6,3.8,3.8,0,0,0-2.6-1.11c-1-.1-1.92,0-2.88-.09a18.15,18.15,0,0,1-3-.42,17.47,17.47,0,0,1-5.89-2.6l-.27.6a10.35,10.35,0,0,0,11.1-4.82l.25-.45-.51-.09a23.24,23.24,0,0,1-10.11-4.69l-.29.69a14.18,14.18,0,0,0,12.9-6l.33-.49.36-.55-.67-.06a13.35,13.35,0,0,1-6.26-2.44,45.47,45.47,0,0,1-5.15-4.32,35.39,35.39,0,0,0-5.16-4.13,27.81,27.81,0,0,0-5.71-2.77,27.44,27.44,0,0,0-21.35,1.23,27.85,27.85,0,0,0-10.85,9.71,19.06,19.06,0,0,0-2.39,4.81,41.74,41.74,0,0,1,2.65-4.63,28,28,0,0,1,10.84-9.38,26,26,0,0,1,9.58-2.58,27.48,27.48,0,0,1,11.27,1.54,28.64,28.64,0,0,1,10.59,6.77,45.38,45.38,0,0,0,5.24,4.41,14.15,14.15,0,0,0,6.63,2.58l-.31-.61c-.09.15-.2.3-.3.46a13.44,13.44,0,0,1-12.16,5.7l-1.32-.14,1,.83a23.77,23.77,0,0,0,10.46,4.8l-.25-.54A9.66,9.66,0,0,1,263,141.85l-1.8-.43,1.53,1a18,18,0,0,0,6.13,2.63,18.48,18.48,0,0,0,3.08.41c1,0,2,0,2.86.06a3.27,3.27,0,0,1,2.26.89,2,2,0,0,1,.29,2.11,7.78,7.78,0,0,1-2.83,3.13,16.49,16.49,0,0,1-5.48,2.58C267.68,154.61,266.92,154.66,266.93,154.71Z" style="fill:#455a64"></path><path d="M227.15,174.63a2.67,2.67,0,0,0,3,2.13,2.55,2.55,0,0,0,2.21-2.91,2.66,2.66,0,0,0-3-2.12A2.54,2.54,0,0,0,227.15,174.63Z" style="fill:#263238"></path><path d="M223.13,165.83c.39.28,2.07-1.59,4.88-2.15s5.16.42,5.39,0c.12-.18-.33-.73-1.36-1.2a7.27,7.27,0,0,0-4.4-.43,7,7,0,0,0-3.81,2.14C223.1,165,222.94,165.71,223.13,165.83Z" style="fill:#263238"></path><path d="M251.49,170.72a2.67,2.67,0,0,0,3,2.13,2.55,2.55,0,0,0,2.22-2.9,2.68,2.68,0,0,0-3.06-2.13A2.55,2.55,0,0,0,251.49,170.72Z" style="fill:#263238"></path><path d="M250.81,160.88c.39.28,2.08-1.59,4.89-2.15s5.16.42,5.39,0c.12-.19-.33-.74-1.37-1.21a7.34,7.34,0,0,0-4.4-.43,7,7,0,0,0-3.8,2.14C250.79,160.09,250.62,160.76,250.81,160.88Z" style="fill:#263238"></path><path d="M260.71,149.3c-.32-.76-3.16-.25-6.54-.48s-6.15-1-6.56-.3c-.18.35.33,1.06,1.46,1.76a11,11,0,0,0,4.92,1.44,10.9,10.9,0,0,0,5.06-.85C260.26,150.31,260.85,149.67,260.71,149.3Z" style="fill:#263238"></path><path d="M221.32,157.59c.7.53,2.87-.56,5.63-1.11s5.18-.53,5.59-1.3c.17-.37-.31-.94-1.45-1.36a9,9,0,0,0-4.78-.18,8.81,8.81,0,0,0-4.26,2.13C221.2,156.61,221,157.33,221.32,157.59Z" style="fill:#263238"></path><path d="M249.08,194.8c.44.09.84-2.82,3.61-4.54s5.82-1,5.89-1.38c.07-.17-.61-.66-1.91-.87a7.26,7.26,0,0,0-4.9,1,6.31,6.31,0,0,0-2.83,3.83C248.66,194,248.88,194.79,249.08,194.8Z" style="fill:#263238"></path><path d="M187.14,196.33c-.65.87-17.3,29.63-17.3,29.63s-16.09,30-18.76,38c-3.9,11.68-5.11,29.15,6.71,36.12,7,4.11,13.21,4.56,28.42-1.31A93.29,93.29,0,0,0,212.39,283l.1-50.71-19.07,17.52L205.12,204Z" style="fill:#ffbf9d"></path><path d="M179.94,208.76l7.21-14.67s16.88-30.31,17.9-31.53,6.45-13.87,6.45-13.87l7.6-9.09s3.57.53,1.31,5.15l-3.23,6.15L229,139s3.51.41,2.14,4.13c-1,2.77-4.63,7.06-4.63,7.06L237.18,141s4.42.68,2.3,5.32C238.1,149.3,225.7,163,225.7,163s6.18-3.82,8.14-5.09,4-4,5.41-3.77,4,2.5.21,6.76S225.13,172,223.59,172.82l-1.54.85s-1.83,4.74-4.42,7c0,0-4.24,13.45-6.38,17.15a18.42,18.42,0,0,1-6.13,6.16l-4.81,18.82" style="fill:#ffbf9d"></path><path d="M200.31,222.83a2.85,2.85,0,0,1,.06-.33c0-.22.13-.53.22-.94l.9-3.67L205,204l0-.06.05,0a17.73,17.73,0,0,0,7.52-9.29c1.68-4.2,3.26-8.89,4.88-14v0l0,0a20,20,0,0,0,4.35-7l0-.07.07,0a51,51,0,0,0,4.41-2.65q2.2-1.44,4.42-3c1.48-1.06,3-2.16,4.43-3.33a33.09,33.09,0,0,0,4.18-3.86,8.47,8.47,0,0,0,1.51-2.39,3,3,0,0,0-.06-2.66,2.68,2.68,0,0,0-1-.94,2.52,2.52,0,0,0-.63-.23,1.13,1.13,0,0,0-.62.07,8.87,8.87,0,0,0-2.35,1.75,17.29,17.29,0,0,1-2.41,2l-2.64,1.66-5.38,3.36-1.52.95,1.2-1.33c3.05-3.4,6.15-6.92,9.2-10.59a54.45,54.45,0,0,0,4.34-5.72,4.63,4.63,0,0,0,.62-3.31,3.13,3.13,0,0,0-2.53-2l.21-.06-3,2.63-7.61,6.6-.37-.36a37.63,37.63,0,0,0,4-5.73,7.81,7.81,0,0,0,.67-1.55,3.37,3.37,0,0,0,.17-1.59,2,2,0,0,0-.75-1.3,3.23,3.23,0,0,0-1.44-.61l.21-.07-11.86,11.89-1.16,1.16.77-1.45,3.13-5.95a6,6,0,0,0,.81-3,2.17,2.17,0,0,0-1.83-2l.22-.09-7.61,9.08,0-.05c-1,2.33-2,4.61-3,6.83s-2,4.39-3.09,6.45c-1.29,1.95-2.37,3.91-3.48,5.81s-2.15,3.77-3.18,5.56c-4.06,7.21-7.61,13.49-10.53,18.67L187.35,194c-.33.62-.62,1.24-.92,1.83l-1.65,3.33-2.62,5.26c-.71,1.41-1.26,2.5-1.63,3.25l-.43.83c-.1.18-.16.27-.16.27s0-.1.13-.29l.39-.84c.37-.76.89-1.86,1.58-3.29s1.55-3.2,2.56-5.28l1.62-3.35c.3-.59.58-1.21.91-1.84l1.05-1.9c2.9-5.19,6.41-11.5,10.44-18.72q1.53-2.7,3.16-5.57c1.1-1.9,2.19-3.9,3.46-5.82,1.09-2,2-4.21,3.06-6.42s2-4.51,3-6.84l0,0,0,0,7.59-9.09.09-.11.13,0a2.94,2.94,0,0,1,1.54.82,2.57,2.57,0,0,1,.7,1.6,6.47,6.47,0,0,1-.86,3.27l-3.12,6-.4-.29,11.85-11.9.09-.09h.12a3.72,3.72,0,0,1,1.7.72,2.53,2.53,0,0,1,.94,1.61,3.88,3.88,0,0,1-.19,1.83,8.61,8.61,0,0,1-.7,1.65,38.64,38.64,0,0,1-4.07,5.81l-.37-.36,7.6-6.61,3-2.63.09-.08.12,0a4.52,4.52,0,0,1,1.8.77,3,3,0,0,1,1.15,1.6,3.55,3.55,0,0,1,0,1.94,4.79,4.79,0,0,1-.28.91,5.13,5.13,0,0,1-.4.86,54.43,54.43,0,0,1-4.39,5.8c-3.06,3.68-6.17,7.2-9.22,10.6l-.32-.39,5.37-3.35c.88-.56,1.77-1.11,2.64-1.65a17.85,17.85,0,0,0,2.35-1.93,9.23,9.23,0,0,1,2.52-1.85,1.8,1.8,0,0,1,.87-.09,2.55,2.55,0,0,1,.77.29,3,3,0,0,1,1.16,1.12,3.46,3.46,0,0,1,.1,3.07,9.06,9.06,0,0,1-1.6,2.53,33.75,33.75,0,0,1-4.25,3.9c-1.48,1.19-3,2.29-4.46,3.34s-3,2.06-4.44,3-3,1.87-4.45,2.65l.09-.11a27,27,0,0,1-1.93,3.88,14.51,14.51,0,0,1-2.54,3.23l0-.09c-1.64,5.07-3.23,9.76-4.94,14a31.11,31.11,0,0,1-1.4,3,15.78,15.78,0,0,1-1.84,2.6,19.28,19.28,0,0,1-4.46,3.77l.07-.09c-1.56,6-2.78,10.67-3.62,13.89l-1,3.65c-.11.4-.19.71-.26.93Z" style="fill:#ff9a6c"></path><path d="M228.25,148.25a5.3,5.3,0,0,1-.65.83c-.43.52-1.08,1.26-1.89,2.16-1.62,1.8-3.91,4.24-6.61,6.77a72.42,72.42,0,0,1-6,5.07l0,0h0a12.44,12.44,0,0,0-3.61,1.7c-.79.55-1.19.93-1.21.9s.08-.11.27-.29a8.12,8.12,0,0,1,.86-.72,11.49,11.49,0,0,1,3.62-1.82l0,0c1.72-1.34,3.78-3.1,5.91-5.1,2.69-2.52,5-4.94,6.66-6.7.81-.85,1.47-1.56,2-2.09A9.26,9.26,0,0,1,228.25,148.25Z" style="fill:#ff9a6c"></path><path d="M228.25,148.25s-.36.44-1.05,1.22-1.7,1.9-3,3.25l-4.7,4.8a80.27,80.27,0,0,1-6.33,5.57l-.27-.43,0,0,.18.47a11.53,11.53,0,0,0-2.45,1.07,10.47,10.47,0,0,0-2.15,1.65.15.15,0,0,0,0-.08.3.3,0,0,0-.06-.23.16.16,0,0,0-.08-.05.21.21,0,0,0-.19,0h0l0,0,.06,0,.14-.11.28-.23.58-.42a12.14,12.14,0,0,1,1.22-.75,12.71,12.71,0,0,1,2.58-1.05l-.08,0a95.81,95.81,0,0,0,11.18-10.18c1.32-1.36,2.32-2.5,3-3.27l1.08-1.19a5.14,5.14,0,0,1-.95,1.31c-.67.8-1.63,2-2.92,3.38a86.44,86.44,0,0,1-11.12,10.36l0,0h0a12.46,12.46,0,0,0-2.47,1q-.6.33-1.17.72l-.56.42-.28.21-.14.11-.07.06-.06,0-.07,0a.24.24,0,0,1-.2,0,.16.16,0,0,1-.08-.05.27.27,0,0,1-.07-.23.84.84,0,0,1,0-.1,11.12,11.12,0,0,1,4.9-2.93l.19.47,0,0-.27-.42c2.38-1.86,4.51-3.73,6.35-5.49l4.76-4.71C226.65,149.86,228.15,148.15,228.25,148.25Z" style="fill:#ff9a6c"></path><path d="M217.76,150.18a10.68,10.68,0,0,1-1.11,1.4c-.73.84-1.76,2-2.93,3.19l-3,3.11a11.49,11.49,0,0,1-1.29,1.25,9.61,9.61,0,0,1,1.13-1.4c.73-.83,1.77-1.95,2.94-3.17s2.16-2.26,3-3.12A11.2,11.2,0,0,1,217.76,150.18Z" style="fill:#ff9a6c"></path><path d="M217.76,150.18s-.88,1-2.38,2.68l-2.63,2.86-1.54,1.69c-.27.29-.55.59-.81.9l-.4.47-.19.24-.09.12,0,.06h0v0a.24.24,0,0,0-.09-.22.22.22,0,0,0-.23-.05h-.05l0,0,0,0,.11-.1.22-.22.43-.43.85-.87,1.61-1.64c1-1,1.92-2,2.69-2.81s1.4-1.43,1.81-1.89l.65-.7a11.19,11.19,0,0,1-2.19,2.84c-.73.83-1.6,1.84-2.61,2.89l-1.59,1.66-.85.88-.44.44-.22.23-.13.11-.07.06,0,0-.06,0h0a.28.28,0,0,1-.25,0,.3.3,0,0,1-.1-.25c0-.08,0,0,0-.06l0-.06,0-.05.05-.07.1-.13.2-.26.4-.47c.27-.32.55-.62.82-.91l1.58-1.68c1-1.07,1.94-2,2.72-2.79A14.58,14.58,0,0,1,217.76,150.18Z" style="fill:#ff9a6c"></path><path d="M213.22,169A52.72,52.72,0,0,0,226,162.83" style="fill:#ffbf9d"></path><path d="M226,162.83a6.88,6.88,0,0,1-1.66,1.28,37.88,37.88,0,0,1-4.4,2.49,38.26,38.26,0,0,1-4.67,1.92,7,7,0,0,1-2,.52c-.05-.15,3-1.19,6.48-2.91S225.89,162.7,226,162.83Z" style="fill:#ff9a6c"></path><path d="M226,162.83s-.14.15-.44.36-.72.51-1.26.86a45.94,45.94,0,0,1-4.4,2.45,42.34,42.34,0,0,1-4.66,1.95c-.61.21-1.1.37-1.45.47a1.84,1.84,0,0,1-.55.12,18.9,18.9,0,0,1,1.93-.79c1.19-.48,2.83-1.16,4.59-2s3.31-1.72,4.43-2.37A20.08,20.08,0,0,1,226,162.83Z" style="fill:#ff9a6c"></path><path d="M226,162.83a33.46,33.46,0,0,1-3.56,2.18,40.23,40.23,0,0,1-4,2.08l-2.45,1.09c-.42.19-.86.38-1.31.55L214,169l-.33.13-.16.07-.07,0s0,0,0,0a.23.23,0,0,0,.08-.21.26.26,0,0,0-.11-.18l-.09,0h-.05a37.16,37.16,0,0,0,5.13-1.85c1.56-.67,2.92-1.37,4-2s2-1.16,2.62-1.54.95-.59.95-.59-.25.33-.84.75a25.16,25.16,0,0,1-2.55,1.7,39.75,39.75,0,0,1-4,2.1,33.39,33.39,0,0,1-5.29,1.93h-.09s0,0-.1,0a.26.26,0,0,1-.12-.19.29.29,0,0,1,.09-.23l.09-.06.1-.05.18-.08.34-.14.67-.26c.45-.17.89-.35,1.31-.54l2.44-1.06c1.59-.62,2.91-1.4,4.06-2A34.64,34.64,0,0,1,226,162.83Z" style="fill:#ff9a6c"></path><path d="M343.21,235.91s16,7.94,21.8,34.44C368.67,287,375.23,314,375.23,314l-41.69,6.58s-6.56-39.48-5.8-40.28S343.21,235.91,343.21,235.91Z" style="fill:#1151E4"></path><path d="M212.49,232.24l39.14-6.83s3.19,19.63,24.21,16c21.61-3.73,19.88-21.36,19.88-21.36s36,10.29,43,13.41a31,31,0,0,1,10.81,7.95s-12.81,49.71-13.21,50.34-1.43,75-1.83,102.58c2.68,5,3.42,10.76,2.57,17l-121.65,2.58L211.5,288.74,195.26,297l-8.39-23.88,7.54-28Z" style="fill:#1151E4"></path><path d="M238.23,325.59l.17-.09.49-.25,1.93-.92,7.09-3.38c6-2.87,14.23-6.88,23.26-11.46s17.14-8.86,23-12l6.92-3.72,1.88-1,.49-.25c.12-.06.17-.09.18-.08l-.16.1-.48.29-1.86,1.05c-1.61.92-4,2.22-6.87,3.81-5.82,3.19-13.92,7.5-22.95,12.08S254,318.33,248,321.14c-3,1.41-5.45,2.53-7.14,3.3l-2,.87-.51.22Q238.23,325.61,238.23,325.59Z" style="fill:#263238"></path><path d="M337.75,272.32a2.22,2.22,0,0,1,0,.42c0,.31-.08.71-.14,1.2-.16,1.1-.37,2.62-.63,4.51-.58,3.92-1.39,9.39-2.33,15.81v0c0,4.53.06,9.55.1,14.83,0,10.19,0,19.41.07,26.16,0,3.3,0,6,0,7.93l0,2.15a4.41,4.41,0,0,1,0,.75,3.7,3.7,0,0,1-.06-.75c0-.54,0-1.26-.06-2.15,0-1.93-.07-4.63-.12-7.93-.06-6.74-.14-16-.22-26.16,0-5.28,0-10.3-.06-14.83v0h0c1-6.41,1.9-11.87,2.53-15.78.32-1.88.57-3.4.76-4.49.09-.49.16-.88.22-1.19A1.82,1.82,0,0,1,337.75,272.32Z" style="fill:#263238"></path><path d="M208.12,251.64a9.17,9.17,0,0,1,.43,1.62c.24,1.06.55,2.59.9,4.5.7,3.8,1.51,9.09,2.08,15s.8,11.23.84,15.1c0,1.94,0,3.5,0,4.58a11.17,11.17,0,0,1-.1,1.68,9.69,9.69,0,0,1-.1-1.68c0-1.16-.09-2.71-.15-4.57-.13-3.86-.42-9.19-1-15.06s-1.32-11.15-1.93-15c-.31-1.84-.55-3.36-.74-4.52A11.5,11.5,0,0,1,208.12,251.64Z" style="fill:#263238"></path><path d="M196,239.59c.14,0-2.57,10.12-6.06,22.51s-6.42,22.41-6.56,22.38S186,274.36,189.46,262,195.88,239.55,196,239.59Z" style="fill:#ff9a6c"></path><path d="M190.09,368.62s8.59-26.89,38.79-7.78c31,19.58,51.48,106.74,51.48,106.74H200.69c0-26.31-28-96.69-36.76-99.16Z" style="fill:#e0e0e0"></path><path d="M212.49,354l-58.76-1s-25.7.35-25.7,33.55c0,43,15.07,57.68-24.94,82.22l64.57,5.32s30.55-1.93,30.52-37.75c0-16.35-1.36-47.64-2.73-61.62C194.46,364.55,202.67,354.67,212.49,354Z" style="fill:#fff"></path><path d="M212.49,354l-.68.1a16.08,16.08,0,0,0-2.05.4,18.35,18.35,0,0,0-7.06,3.66,21.51,21.51,0,0,0-3.89,4.32,19.64,19.64,0,0,0-2.79,6.36c-.17.6-.23,1.24-.35,1.88s-.1,1.3-.16,2,.05,1.35.08,2.05.12,1.4.19,2.12c.26,2.87.49,5.92.7,9.13.83,12.85,1.58,28.35,1.88,45.9a73.26,73.26,0,0,1-.68,13.54,42.92,42.92,0,0,1-1.75,6.84,32.67,32.67,0,0,1-3.09,6.56,31.53,31.53,0,0,1-10.51,10.51,34.57,34.57,0,0,1-7,3.29,32.88,32.88,0,0,1-7.67,1.74h0l-59.43-4.87-5.14-.43-.78-.06.66-.42c2.93-1.84,5.83-3.68,8.56-5.72a69.65,69.65,0,0,0,7.77-6.5,42.28,42.28,0,0,0,6.31-7.68,31,31,0,0,0,3.82-8.95c1.58-6.31,1.22-12.78.73-19s-1.26-12.32-1.7-18.29-.69-11.79-.6-17.46c0-1.42.15-2.83.25-4.22s.33-2.77.62-4.12a37.06,37.06,0,0,1,2.37-7.77,26.7,26.7,0,0,1,9.76-11.73,27.26,27.26,0,0,1,6.56-3.1,23.05,23.05,0,0,1,6.85-1.19L212.49,354l-58.24-.77a22.77,22.77,0,0,0-6.73,1.19,26.94,26.94,0,0,0-6.47,3.07A26.24,26.24,0,0,0,131.48,369a35.62,35.62,0,0,0-2.33,7.68c-.29,1.34-.43,2.71-.61,4.08s-.24,2.78-.24,4.19c-.09,5.64.15,11.46.62,17.41s1.17,12,1.71,18.29.87,12.74-.73,19.15a31.32,31.32,0,0,1-3.88,9.1,42.3,42.3,0,0,1-6.38,7.78,69.56,69.56,0,0,1-7.83,6.54c-2.74,2.06-5.65,3.91-8.59,5.75l-.11-.48,5.15.43,59.42,4.9h0a33.35,33.35,0,0,0,7.55-1.71,34.45,34.45,0,0,0,6.89-3.24,31.19,31.19,0,0,0,10.37-10.35,32,32,0,0,0,3-6.46,41.59,41.59,0,0,0,1.75-6.77,72.11,72.11,0,0,0,.69-13.45c-.26-17.54-1-33-1.76-45.89-.2-3.21-.42-6.26-.67-9.13l-.18-2.12c0-.7-.08-1.39-.07-2.07s.06-1.35.16-2,.2-1.3.37-1.91a19.72,19.72,0,0,1,2.86-6.41,21.56,21.56,0,0,1,4-4.34,18.05,18.05,0,0,1,7.15-3.61,11,11,0,0,1,2-.34Z" style="fill:#263238"></path><path d="M74.86,453S73.21,472.92,98,474.11s69.68,0,69.68,0-15.6-2.82-15.6-19.78Z" style="fill:#e0e0e0"></path><path d="M74.86,453h1.46l4.28,0,16.07.2,55.4.82h.24v.25a19.14,19.14,0,0,0,15.4,19.52l2,.46-2,.06h-.15c-14.46.35-28.24.52-40.77.5-6.27,0-12.22-.06-17.79-.19-2.79-.08-5.48-.13-8.07-.26a62.48,62.48,0,0,1-7.43-.59,24.61,24.61,0,0,1-11.74-4.9,18.25,18.25,0,0,1-5.6-7.81,21.07,21.07,0,0,1-1.28-6c0-.69,0-1.23,0-1.59s0-.54,0-.54,0,.19,0,.54,0,.89.08,1.59a20.83,20.83,0,0,0,1.36,5.9,18.15,18.15,0,0,0,5.59,7.65,24.47,24.47,0,0,0,11.62,4.76,61.28,61.28,0,0,0,7.39.56c2.58.11,5.27.16,8.06.23,5.56.11,11.52.14,17.78.14,12.53,0,26.3-.19,40.76-.54h.14l0,.51a21.46,21.46,0,0,1-6.61-2.72,18.8,18.8,0,0,1-5.21-4.67,20.71,20.71,0,0,1-4-12.64l.25.25-55.23-1.05-16.12-.34-4.33-.11-1.13,0Z" style="fill:#263238"></path><path d="M182.86,378c0,.28-5.61.52-12.53.52s-12.54-.24-12.54-.52,5.61-.53,12.54-.53S182.86,377.7,182.86,378Z" style="fill:#263238"></path><path d="M139.51,378.07c0-.29,1.57-.53,3.5-.53s3.5.24,3.5.53-1.57.52-3.5.52S139.51,378.35,139.51,378.07Z" style="fill:#263238"></path><path d="M184.41,368.84c0,.28-5.61.52-12.53.52s-12.54-.24-12.54-.52,5.61-.52,12.54-.52S184.41,368.55,184.41,368.84Z" style="fill:#263238"></path><path d="M141.06,368.92c0-.29,1.57-.52,3.5-.52s3.5.23,3.5.52-1.57.52-3.5.52S141.06,369.2,141.06,368.92Z" style="fill:#263238"></path><path d="M189.46,360.57c0,.29-5.61.52-12.54.52s-12.53-.23-12.53-.52,5.61-.52,12.53-.52S189.46,360.28,189.46,360.57Z" style="fill:#263238"></path><path d="M146.11,360.65c0-.29,1.56-.52,3.5-.52s3.49.23,3.49.52-1.56.52-3.49.52S146.11,360.94,146.11,360.65Z" style="fill:#263238"></path><path d="M182.86,388c0,.29-5.61.52-12.53.52s-12.54-.23-12.54-.52,5.61-.52,12.54-.52S182.86,387.69,182.86,388Z" style="fill:#263238"></path><path d="M139.51,388.06c0-.29,1.57-.52,3.5-.52s3.5.23,3.5.52-1.57.52-3.5.52S139.51,388.34,139.51,388.06Z" style="fill:#263238"></path><path d="M184.13,397.78c0,.28-5.62.52-12.54.52s-12.53-.24-12.53-.52,5.61-.52,12.53-.52S184.13,397.49,184.13,397.78Z" style="fill:#263238"></path><path d="M140.78,397.86c0-.29,1.56-.53,3.49-.53s3.5.24,3.5.53-1.56.52-3.5.52S140.78,398.14,140.78,397.86Z" style="fill:#263238"></path><path d="M184.53,406.24c0,.29-5.62.52-12.54.52s-12.54-.23-12.54-.52,5.62-.52,12.54-.52S184.53,406,184.53,406.24Z" style="fill:#263238"></path><path d="M141.17,406.32c0-.29,1.57-.52,3.5-.52s3.5.23,3.5.52-1.57.52-3.5.52S141.17,406.6,141.17,406.32Z" style="fill:#263238"></path><path d="M184.92,414.7c0,.29-5.61.52-12.53.52s-12.54-.23-12.54-.52,5.61-.52,12.54-.52S184.92,414.41,184.92,414.7Z" style="fill:#263238"></path><path d="M141.57,414.78c0-.29,1.57-.52,3.5-.52s3.5.23,3.5.52-1.57.52-3.5.52S141.57,415.07,141.57,414.78Z" style="fill:#263238"></path><path d="M185.32,423.16c0,.29-5.61.52-12.53.52s-12.54-.23-12.54-.52,5.61-.52,12.54-.52S185.32,422.87,185.32,423.16Z" style="fill:#263238"></path><path d="M142,423.24c0-.29,1.57-.52,3.5-.52s3.5.23,3.5.52-1.57.52-3.5.52S142,423.53,142,423.24Z" style="fill:#263238"></path><path d="M185.47,431.39c0,.29-5.62.52-12.54.52s-12.54-.23-12.54-.52,5.62-.52,12.54-.52S185.47,431.1,185.47,431.39Z" style="fill:#263238"></path><path d="M142.12,431.47c0-.29,1.56-.52,3.49-.52s3.5.23,3.5.52-1.56.52-3.5.52S142.12,431.76,142.12,431.47Z" style="fill:#263238"></path><path d="M184.13,439.58c0,.28-5.62.52-12.54.52s-12.53-.24-12.53-.52,5.61-.52,12.53-.52S184.13,439.29,184.13,439.58Z" style="fill:#263238"></path><path d="M140.78,439.66c0-.29,1.56-.52,3.49-.52s3.5.23,3.5.52-1.56.52-3.5.52S140.78,439.94,140.78,439.66Z" style="fill:#263238"></path><path d="M180.91,448.27c0,.29-5.61.52-12.53.52s-12.54-.23-12.54-.52,5.61-.52,12.54-.52S180.91,448,180.91,448.27Z" style="fill:#263238"></path><path d="M137.56,448.35c0-.29,1.57-.52,3.5-.52s3.5.23,3.5.52-1.57.52-3.5.52S137.56,448.64,137.56,448.35Z" style="fill:#263238"></path><path d="M178.49,456.19c0,.29-5.61.52-12.54.52s-12.53-.23-12.53-.52,5.61-.52,12.53-.52S178.49,455.9,178.49,456.19Z" style="fill:#263238"></path><path d="M286.52,366.57,334.66,346l-.14-25.43L369,315.15s1.47,48.47-4.66,56.81c-7.68,10.46-70.85,11.74-70.85,11.74Z" style="fill:#ffbf9d"></path><path d="M334.24,346.34a27,27,0,0,1,15.87,6" style="fill:#ffbf9d"></path><path d="M350.11,352.29a33.07,33.07,0,0,0-15.87-6,8.7,8.7,0,0,1,2.54,0,24.64,24.64,0,0,1,11.39,4.27A8.73,8.73,0,0,1,350.11,352.29Z" style="fill:#ff9a6c"></path><path d="M280.05,366.57c-.69.23-16.39.7-21.24,1.16s-17.09,5.41-17.09,5.41l2.73,4s-1.8,1.1-8,.95c-7.16-.18-15.7-.24-14.77,5.31,0,0-4.53,1.84-.07,5.31l4.22,1.38s.69,3,8.08,4.62c0,0-2.54,1.61,5.31,3.23s19.39,3.92,29.09,1.38,27.47-15.82,27.47-15.82l-9.23-17Z" style="fill:#ffbf9d"></path><path d="M260.23,374.28a14.32,14.32,0,0,1-2.53.39c-1.56.2-3.71.51-6.07,1s-4.47,1-6,1.38a14.9,14.9,0,0,1-2.49.58,11.52,11.52,0,0,1,2.39-.94,51.65,51.65,0,0,1,6-1.53,52.57,52.57,0,0,1,6.14-.82A10.93,10.93,0,0,1,260.23,374.28Z" style="fill:#ff9a6c"></path><path d="M256.07,383.47a6.43,6.43,0,0,1-1.35.26c-.87.14-2.14.31-3.71.48-3.13.34-7.49.65-12.31.69s-9.18-.22-12.32-.52c-1.57-.15-2.84-.29-3.71-.42a6,6,0,0,1-1.35-.25,8.32,8.32,0,0,1,1.37.05l3.72.25c3.14.21,7.49.4,12.29.37s9.14-.29,12.28-.54l3.72-.31A6.76,6.76,0,0,1,256.07,383.47Z" style="fill:#ff9a6c"></path><path d="M257.61,390.56a6.13,6.13,0,0,1-1.24.27c-.81.14-2,.31-3.43.47a87.76,87.76,0,0,1-11.42.53,88.67,88.67,0,0,1-11.4-.93c-1.45-.21-2.61-.42-3.41-.59a7.26,7.26,0,0,1-1.24-.31,5.23,5.23,0,0,1,1.27.11l3.43.43c2.89.34,6.91.69,11.36.77s8.47-.13,11.37-.37l3.44-.31A5.53,5.53,0,0,1,257.61,390.56Z" style="fill:#ff9a6c"></path><path d="M256.07,395.39a2.67,2.67,0,0,1-.88.21c-.57.1-1.4.21-2.43.31a55.69,55.69,0,0,1-16.16-.8c-1-.2-1.84-.39-2.39-.55a2.75,2.75,0,0,1-.86-.29,30.6,30.6,0,0,1,3.31.48,78.5,78.5,0,0,0,8,.83,77.71,77.71,0,0,0,8,0A30,30,0,0,1,256.07,395.39Z" style="fill:#ff9a6c"></path></g></svg>
